<svg width="25" height="29" viewBox="0 0 25 29" fill="none" xmlns="http://www.w3.org/2000/svg">
<mask id="path-1-inside-1_481_283" fill="white">
<path fill-rule="evenodd" clip-rule="evenodd" d="M17.8274 0.371383L16.6293 2.58157C17.8328 3.20114 18.7948 4.064 19.5148 5.17204C20.2347 6.28094 20.5948 7.49251 20.5948 8.80871H4.98633C4.98633 7.4922 5.34645 6.28069 6.06639 5.17204C6.78633 4.064 7.75394 3.20114 8.96885 2.58157L7.77069 0.371383C7.69174 0.225059 7.71972 0.113209 7.85487 0.0339549C8.00089 -0.0337744 8.11335 0.000394896 8.1923 0.13494L9.40722 2.3628C10.4758 1.89022 11.6065 1.65342 12.7991 1.65342C13.9913 1.65342 15.122 1.89016 16.191 2.3628L17.4058 0.13494C17.4844 0.000394896 17.5969 -0.034079 17.7432 0.0339549C17.8781 0.112854 17.9061 0.225059 17.8274 0.371383ZM9.2382 5.99083C9.41808 5.99083 9.57283 5.9262 9.7024 5.79633C9.83136 5.66706 9.89625 5.51262 9.8966 5.33243C9.8966 5.15254 9.83167 4.9984 9.7024 4.86853C9.57283 4.73926 9.41808 4.67463 9.2382 4.67463C9.05831 4.67463 8.90635 4.73926 8.78267 4.86853C8.65899 4.9981 8.59715 5.15254 8.59715 5.33243C8.59715 5.51292 8.65899 5.66706 8.78267 5.79633C8.90635 5.9262 9.05796 5.99083 9.2382 5.99083ZM16.3593 5.99083C16.5389 5.99083 16.6909 5.9262 16.8148 5.79633C16.9385 5.66706 17.0003 5.51262 17.0003 5.33243C17.0003 5.15254 16.9386 4.9984 16.8148 4.86853C16.6908 4.73926 16.5392 4.67463 16.3593 4.67463C16.179 4.67463 16.0243 4.73926 15.895 4.86853C15.7655 4.9981 15.7009 5.15254 15.7009 5.33243C15.7009 5.51292 15.7655 5.66706 15.895 5.79633C16.0243 5.9262 16.179 5.99083 16.3593 5.99083ZM1.42416 9.60184C1.76159 9.26442 2.17208 9.0957 2.65588 9.0957C3.12846 9.0957 3.53362 9.26442 3.8711 9.60184C4.20858 9.93927 4.37729 10.3441 4.37729 10.8168V18.0727C4.37729 18.5571 4.21107 18.9673 3.87953 19.3048C3.54733 19.6422 3.13933 19.8109 2.65588 19.8109C2.17208 19.8109 1.76159 19.6422 1.42416 19.3048C1.08668 18.9673 0.917969 18.5571 0.917969 18.0727V10.8168C0.917969 10.3442 1.08673 9.93927 1.42416 9.60184ZM5.05273 20.6545C5.05273 21.1725 5.23262 21.6109 5.59244 21.9708C5.95256 22.3306 6.39102 22.5105 6.90864 22.5105H8.15742L8.17453 26.3414C8.17453 26.8251 8.34324 27.2359 8.68067 27.5734C9.0181 27.9109 9.42331 28.0796 9.89558 28.0796C10.3791 28.0796 10.7898 27.9109 11.1273 27.5734C11.4648 27.2359 11.6335 26.8252 11.6335 26.3414V22.5108H13.9621V26.3414C13.9621 26.8251 14.1307 27.2359 14.4682 27.5734C14.8057 27.9109 15.2161 28.0796 15.6999 28.0796C16.1834 28.0796 16.5942 27.9109 16.9317 27.5734C17.2691 27.2359 17.4378 26.8252 17.4378 26.3414V22.5108H18.7034C19.2096 22.5108 19.6424 22.3309 20.0029 21.9711C20.3627 21.6113 20.5426 21.1728 20.5426 20.6549V9.41602H5.05273V20.6545ZM21.7229 9.59347C22.0604 9.26193 22.4653 9.0957 22.9379 9.0957C23.4214 9.0957 23.8321 9.26193 24.1696 9.59347C24.5071 9.92562 24.6758 10.3336 24.6758 10.8168V18.0727C24.6758 18.5571 24.5071 18.9673 24.1696 19.3048C23.8321 19.6422 23.4214 19.8109 22.9379 19.8109C22.4656 19.8109 22.0604 19.6422 21.7229 19.3048C21.3855 18.9673 21.2168 18.5571 21.2168 18.0727V10.8168C21.2168 10.3336 21.3855 9.92562 21.7229 9.59347Z"/>
</mask>
<path fill-rule="evenodd" clip-rule="evenodd" d="M17.8274 0.371383L16.6293 2.58157C17.8328 3.20114 18.7948 4.064 19.5148 5.17204C20.2347 6.28094 20.5948 7.49251 20.5948 8.80871H4.98633C4.98633 7.4922 5.34645 6.28069 6.06639 5.17204C6.78633 4.064 7.75394 3.20114 8.96885 2.58157L7.77069 0.371383C7.69174 0.225059 7.71972 0.113209 7.85487 0.0339549C8.00089 -0.0337744 8.11335 0.000394896 8.1923 0.13494L9.40722 2.3628C10.4758 1.89022 11.6065 1.65342 12.7991 1.65342C13.9913 1.65342 15.122 1.89016 16.191 2.3628L17.4058 0.13494C17.4844 0.000394896 17.5969 -0.034079 17.7432 0.0339549C17.8781 0.112854 17.9061 0.225059 17.8274 0.371383ZM9.2382 5.99083C9.41808 5.99083 9.57283 5.9262 9.7024 5.79633C9.83136 5.66706 9.89625 5.51262 9.8966 5.33243C9.8966 5.15254 9.83167 4.9984 9.7024 4.86853C9.57283 4.73926 9.41808 4.67463 9.2382 4.67463C9.05831 4.67463 8.90635 4.73926 8.78267 4.86853C8.65899 4.9981 8.59715 5.15254 8.59715 5.33243C8.59715 5.51292 8.65899 5.66706 8.78267 5.79633C8.90635 5.9262 9.05796 5.99083 9.2382 5.99083ZM16.3593 5.99083C16.5389 5.99083 16.6909 5.9262 16.8148 5.79633C16.9385 5.66706 17.0003 5.51262 17.0003 5.33243C17.0003 5.15254 16.9386 4.9984 16.8148 4.86853C16.6908 4.73926 16.5392 4.67463 16.3593 4.67463C16.179 4.67463 16.0243 4.73926 15.895 4.86853C15.7655 4.9981 15.7009 5.15254 15.7009 5.33243C15.7009 5.51292 15.7655 5.66706 15.895 5.79633C16.0243 5.9262 16.179 5.99083 16.3593 5.99083ZM1.42416 9.60184C1.76159 9.26442 2.17208 9.0957 2.65588 9.0957C3.12846 9.0957 3.53362 9.26442 3.8711 9.60184C4.20858 9.93927 4.37729 10.3441 4.37729 10.8168V18.0727C4.37729 18.5571 4.21107 18.9673 3.87953 19.3048C3.54733 19.6422 3.13933 19.8109 2.65588 19.8109C2.17208 19.8109 1.76159 19.6422 1.42416 19.3048C1.08668 18.9673 0.917969 18.5571 0.917969 18.0727V10.8168C0.917969 10.3442 1.08673 9.93927 1.42416 9.60184ZM5.05273 20.6545C5.05273 21.1725 5.23262 21.6109 5.59244 21.9708C5.95256 22.3306 6.39102 22.5105 6.90864 22.5105H8.15742L8.17453 26.3414C8.17453 26.8251 8.34324 27.2359 8.68067 27.5734C9.0181 27.9109 9.42331 28.0796 9.89558 28.0796C10.3791 28.0796 10.7898 27.9109 11.1273 27.5734C11.4648 27.2359 11.6335 26.8252 11.6335 26.3414V22.5108H13.9621V26.3414C13.9621 26.8251 14.1307 27.2359 14.4682 27.5734C14.8057 27.9109 15.2161 28.0796 15.6999 28.0796C16.1834 28.0796 16.5942 27.9109 16.9317 27.5734C17.2691 27.2359 17.4378 26.8252 17.4378 26.3414V22.5108H18.7034C19.2096 22.5108 19.6424 22.3309 20.0029 21.9711C20.3627 21.6113 20.5426 21.1728 20.5426 20.6549V9.41602H5.05273V20.6545ZM21.7229 9.59347C22.0604 9.26193 22.4653 9.0957 22.9379 9.0957C23.4214 9.0957 23.8321 9.26193 24.1696 9.59347C24.5071 9.92562 24.6758 10.3336 24.6758 10.8168V18.0727C24.6758 18.5571 24.5071 18.9673 24.1696 19.3048C23.8321 19.6422 23.4214 19.8109 22.9379 19.8109C22.4656 19.8109 22.0604 19.6422 21.7229 19.3048C21.3855 18.9673 21.2168 18.5571 21.2168 18.0727V10.8168C21.2168 10.3336 21.3855 9.92562 21.7229 9.59347Z" fill="#AAAAAA"/>
<path d="M16.6293 2.58157L15.7502 2.10501L15.2634 3.00308L16.1716 3.47066L16.6293 2.58157ZM17.8274 0.371383L18.7066 0.847953L18.7083 0.844811L17.8274 0.371383ZM19.5148 5.17204L20.3535 4.62753L20.3533 4.62718L19.5148 5.17204ZM20.5948 8.80871V9.80871H21.5948V8.80871H20.5948ZM4.98633 8.80871H3.98633V9.80871H4.98633V8.80871ZM6.06639 5.17204L5.22785 4.6272L5.22771 4.62741L6.06639 5.17204ZM8.96885 2.58157L9.42316 3.47242L10.3367 3.00653L9.84798 2.10499L8.96885 2.58157ZM7.77069 0.371383L6.89062 0.846231L6.89156 0.847965L7.77069 0.371383ZM7.85487 0.0339549L7.43409 -0.873209L7.39049 -0.852984L7.34903 -0.82867L7.85487 0.0339549ZM8.1923 0.13494L9.07024 -0.343827L9.06273 -0.357613L9.05478 -0.371156L8.1923 0.13494ZM9.40722 2.3628L8.52927 2.84156L8.96993 3.64962L9.81168 3.27735L9.40722 2.3628ZM16.191 2.3628L15.7866 3.27739L16.6283 3.64954L17.0689 2.84155L16.191 2.3628ZM17.4058 0.13494L16.5424 -0.369457L16.5349 -0.356741L16.5279 -0.343811L17.4058 0.13494ZM17.7432 0.0339549L18.2483 -0.829163L18.2075 -0.85299L18.1647 -0.872877L17.7432 0.0339549ZM9.7024 5.79633L10.4103 6.5026L10.4103 6.5026L9.7024 5.79633ZM9.8966 5.33243L10.8966 5.3344V5.33243H9.8966ZM9.7024 4.86853L10.4112 4.16308L10.4087 4.16059L9.7024 4.86853ZM8.78267 4.86853L8.06013 4.1772L8.05932 4.17805L8.78267 4.86853ZM8.78267 5.79633L9.50684 5.1067L9.50522 5.105L8.78267 5.79633ZM16.8148 5.79633L16.0924 5.10485L16.0913 5.10596L16.8148 5.79633ZM16.8148 4.86853L17.5387 4.1786L17.5365 4.17632L16.8148 4.86853ZM15.895 4.86853L15.188 4.16128L15.1878 4.16156L15.895 4.86853ZM15.895 5.79633L16.6036 5.09074L16.6014 5.08853L15.895 5.79633ZM1.42416 9.60184L0.717055 8.89474H0.717055L1.42416 9.60184ZM3.87953 19.3048L4.59219 20.0063L4.59283 20.0056L3.87953 19.3048ZM1.42416 19.3048L0.717055 20.0119H0.717056L1.42416 19.3048ZM5.59244 21.9708L4.88533 22.6779L4.88563 22.6782L5.59244 21.9708ZM8.15742 22.5105L9.15741 22.506L9.15296 21.5105H8.15742V22.5105ZM8.17453 26.3414H9.17454L9.17452 26.3369L8.17453 26.3414ZM8.68067 27.5734L7.97351 28.2805L7.97351 28.2805L8.68067 27.5734ZM11.1273 27.5734L11.8344 28.2805L11.8344 28.2805L11.1273 27.5734ZM11.6335 22.5108V21.5108H10.6335V22.5108H11.6335ZM13.9621 22.5108H14.9621V21.5108H13.9621V22.5108ZM14.4682 27.5734L13.7611 28.2805L13.7611 28.2805L14.4682 27.5734ZM16.9317 27.5734L17.6388 28.2805L17.6388 28.2805L16.9317 27.5734ZM17.4378 22.5108V21.5108H16.4378V22.5108H17.4378ZM20.0029 21.9711L20.7093 22.6788L20.71 22.6781L20.0029 21.9711ZM20.5426 9.41602H21.5426V8.41602H20.5426V9.41602ZM5.05273 9.41602V8.41602H4.05273V9.41602H5.05273ZM21.7229 9.59347L21.0221 8.88011L21.0214 8.88081L21.7229 9.59347ZM24.1696 9.59347L24.8711 8.88075L24.8704 8.88011L24.1696 9.59347ZM17.5085 3.05814L18.7066 0.84795L16.9483 -0.105184L15.7502 2.10501L17.5085 3.05814ZM20.3533 4.62718C19.5358 3.36915 18.4408 2.38945 17.0871 1.69248L16.1716 3.47066C17.2247 4.01282 18.0537 4.75885 18.6763 5.71691L20.3533 4.62718ZM21.5948 8.80871C21.5948 7.29804 21.178 5.89754 20.3535 4.62753L18.676 5.71655C19.2913 6.66435 19.5948 7.68697 19.5948 8.80871H21.5948ZM4.98633 9.80871H20.5948V7.80871H4.98633V9.80871ZM5.22771 4.62741C4.40308 5.89728 3.98633 7.29779 3.98633 8.80871H5.98633C5.98633 7.68661 6.28982 6.6641 6.90507 5.71667L5.22771 4.62741ZM8.51455 1.69072C7.14907 2.38708 6.04671 3.36693 5.22785 4.6272L6.90493 5.71688C7.52596 4.76108 8.35881 4.0152 9.42316 3.47242L8.51455 1.69072ZM6.89156 0.847965L8.08972 3.05815L9.84798 2.10499L8.64982 -0.1052L6.89156 0.847965ZM7.34903 -0.82867C7.13477 -0.703031 6.86196 -0.464032 6.76227 -0.0646804C6.66595 0.321155 6.7842 0.648981 6.89063 0.84623L8.65076 -0.103464C8.67824 -0.0525391 8.771 0.1462 8.70272 0.419716C8.63107 0.706748 8.43982 0.850195 8.36072 0.89658L7.34903 -0.82867ZM9.05478 -0.371156C8.93095 -0.582177 8.70558 -0.838229 8.33645 -0.949122C7.97199 -1.05861 7.64749 -0.972192 7.43409 -0.873209L8.27565 0.941119C8.20827 0.972372 8.01302 1.04201 7.76102 0.966311C7.50436 0.889206 7.3747 0.717512 7.32982 0.641035L9.05478 -0.371156ZM10.2852 1.88403L9.07024 -0.343827L7.31436 0.613706L8.52927 2.84156L10.2852 1.88403ZM12.7991 0.653417C11.4699 0.653417 10.2012 0.918245 9.00275 1.44824L9.81168 3.27735C10.7504 2.86219 11.7432 2.65342 12.7991 2.65342V0.653417ZM16.5953 1.4482C15.3966 0.918203 14.128 0.653417 12.7991 0.653417V2.65342C13.8547 2.65342 14.8473 2.86213 15.7866 3.27739L16.5953 1.4482ZM16.5279 -0.343811L15.313 1.88405L17.0689 2.84155L18.2838 0.613691L16.5279 -0.343811ZM18.1647 -0.872877C17.951 -0.972202 17.6259 -1.05899 17.2608 -0.949057C16.891 -0.837721 16.6658 -0.58077 16.5424 -0.369457L18.2693 0.639336C18.2245 0.716104 18.0947 0.888547 17.8374 0.966017C17.5848 1.04208 17.3891 0.972077 17.3218 0.940787L18.1647 -0.872877ZM18.7083 0.844811C18.8145 0.64712 18.9316 0.319937 18.8357 -0.0646422C18.7362 -0.463313 18.4642 -0.702833 18.2483 -0.829163L17.2382 0.897073C17.1572 0.849642 16.9665 0.705674 16.8951 0.419412C16.8272 0.147241 16.919 -0.0506776 16.9466 -0.102045L18.7083 0.844811ZM8.99446 5.09005C9.01333 5.07114 9.04943 5.04228 9.10298 5.01986C9.15683 4.99732 9.20555 4.99083 9.2382 4.99083V6.99083C9.68832 6.99083 10.0965 6.81723 10.4103 6.5026L8.99446 5.09005ZM8.8966 5.33046C8.89667 5.29825 8.90315 5.25017 8.92542 5.19703C8.94754 5.14423 8.97592 5.10864 8.99446 5.09005L10.4103 6.5026C10.7221 6.19013 10.8957 5.784 10.8966 5.3344L8.8966 5.33046ZM8.99363 5.57397C8.97626 5.55652 8.94801 5.52147 8.92576 5.4684C8.90328 5.41479 8.8966 5.36583 8.8966 5.33243H10.8966C10.8966 4.88026 10.7213 4.4747 10.4112 4.16308L8.99363 5.57397ZM9.2382 5.67463C9.20555 5.67463 9.15715 5.66815 9.10375 5.64585C9.05069 5.62369 9.01488 5.59518 8.99613 5.57647L10.4087 4.16059C10.0953 3.84793 9.68799 3.67463 9.2382 3.67463V5.67463ZM9.50522 5.55985C9.48124 5.58491 9.43975 5.61822 9.38095 5.64325C9.32228 5.66821 9.2706 5.67463 9.2382 5.67463V3.67463C8.78744 3.67463 8.37383 3.84933 8.06013 4.1772L9.50522 5.55985ZM9.59715 5.33243C9.59715 5.35947 9.592 5.40304 9.572 5.45303C9.55198 5.50307 9.52544 5.53867 9.50603 5.559L8.05932 4.17805C7.75753 4.49421 7.59715 4.89615 7.59715 5.33243H9.59715ZM9.50522 5.105C9.52484 5.12551 9.55171 5.16148 9.57194 5.21201C9.59213 5.26246 9.59715 5.30607 9.59715 5.33243H7.59715C7.59715 5.76912 7.75743 6.17129 8.06013 6.48765L9.50522 5.105ZM9.2382 4.99083C9.27024 4.99083 9.32235 4.99719 9.38179 5.02256C9.44138 5.048 9.48311 5.08178 9.50684 5.1067L8.05851 6.48596C8.37242 6.81559 8.78644 6.99083 9.2382 6.99083V4.99083ZM16.0913 5.10596C16.115 5.08113 16.1565 5.04768 16.2155 5.02249C16.2745 4.99734 16.3265 4.99083 16.3593 4.99083V6.99083C16.8105 6.99083 17.2245 6.81554 17.5382 6.48669L16.0913 5.10596ZM16.0003 5.33243C16.0003 5.30588 16.0054 5.26236 16.0255 5.21212C16.0456 5.16176 16.0724 5.1257 16.0924 5.10485L17.5372 6.48781C17.8404 6.17107 18.0003 5.76839 18.0003 5.33243H16.0003ZM16.0909 5.55845C16.0721 5.53868 16.0456 5.50333 16.0255 5.45317C16.0054 5.40302 16.0003 5.35934 16.0003 5.33243H18.0003C18.0003 4.89582 17.8398 4.49458 17.5387 4.1786L16.0909 5.55845ZM16.3593 5.67463C16.3268 5.67463 16.275 5.66818 16.2162 5.64315C16.1574 5.6181 16.1163 5.58496 16.0931 5.56074L17.5365 4.17632C17.2234 3.84988 16.8109 3.67463 16.3593 3.67463V5.67463ZM16.602 5.57577C16.5829 5.59483 16.5468 5.62358 16.4934 5.64586C16.4398 5.66826 16.3915 5.67463 16.3593 5.67463V3.67463C15.9095 3.67463 15.5018 3.84767 15.188 4.16128L16.602 5.57577ZM16.7009 5.33243C16.7009 5.36512 16.6944 5.41386 16.6718 5.46767C16.6495 5.52112 16.6208 5.55698 16.6023 5.5755L15.1878 4.16156C14.8746 4.4748 14.7009 4.882 14.7009 5.33243H16.7009ZM16.6014 5.08853C16.6201 5.1072 16.6492 5.14341 16.6718 5.19736C16.6945 5.25165 16.7009 5.30043 16.7009 5.33243H14.7009C14.7009 5.78329 14.8746 6.1907 15.1886 6.50413L16.6014 5.08853ZM16.3593 4.99083C16.3915 4.99083 16.4401 4.99721 16.4942 5.01985C16.548 5.04238 16.5845 5.07148 16.6036 5.09075L15.1864 6.50191C15.5006 6.81749 15.9092 6.99083 16.3593 6.99083V4.99083ZM2.65588 8.0957C1.91091 8.0957 1.24486 8.36693 0.717055 8.89474L2.13127 10.309C2.27832 10.1619 2.43325 10.0957 2.65588 10.0957V8.0957ZM4.57815 8.89468C4.05516 8.37177 3.39649 8.0957 2.65588 8.0957V10.0957C2.86043 10.0957 3.01208 10.1571 3.16405 10.309L4.57815 8.89468ZM5.37729 10.8168C5.37729 10.0759 5.1011 9.41755 4.57815 8.89468L3.16405 10.309C3.31606 10.461 3.37729 10.6123 3.37729 10.8168H5.37729ZM5.37729 18.0727V10.8168H3.37729V18.0727H5.37729ZM4.59283 20.0056C5.11219 19.477 5.37729 18.8134 5.37729 18.0727H3.37729C3.37729 18.3009 3.30994 18.4576 3.16622 18.6039L4.59283 20.0056ZM2.65588 20.8109C3.40083 20.8109 4.06754 20.5392 4.59219 20.0063L3.16687 18.6032C3.02711 18.7452 2.87782 18.8109 2.65588 18.8109V20.8109ZM0.717056 20.0119C1.24481 20.5396 1.91083 20.8109 2.65588 20.8109V18.8109C2.43333 18.8109 2.27837 18.7448 2.13127 18.5976L0.717056 20.0119ZM-0.0820312 18.0727C-0.0820312 18.8184 0.189236 19.484 0.717055 20.0119L2.13127 18.5976C1.98413 18.4505 1.91797 18.2959 1.91797 18.0727H-0.0820312ZM-0.0820312 10.8168V18.0727H1.91797V10.8168H-0.0820312ZM0.717055 8.89474C0.194249 9.41754 -0.0820312 10.0759 -0.0820312 10.8168H1.91797C1.91797 10.6124 1.97922 10.461 2.13127 10.309L0.717055 8.89474ZM6.29954 21.2637C6.13085 21.095 6.05273 20.9124 6.05273 20.6545H4.05273C4.05273 21.4326 4.33439 22.1269 4.88533 22.6779L6.29954 21.2637ZM6.90864 21.5105C6.6513 21.5105 6.46849 21.4325 6.29924 21.2634L4.88563 22.6782C5.43663 23.2287 6.13074 23.5105 6.90864 23.5105V21.5105ZM8.15742 21.5105H6.90864V23.5105H8.15742V21.5105ZM9.17452 26.3369L9.15741 22.506L7.15743 22.5149L7.17454 26.3459L9.17452 26.3369ZM9.38783 26.8664C9.24084 26.7193 9.17453 26.5641 9.17453 26.3414H7.17453C7.17453 27.0862 7.44564 27.7525 7.97351 28.2805L9.38783 26.8664ZM9.89558 27.0796C9.6914 27.0796 9.53974 27.0183 9.38783 26.8664L7.97351 28.2805C8.49645 28.8035 9.15521 29.0796 9.89558 29.0796V27.0796ZM10.4202 26.8663C10.2731 27.0134 10.118 27.0796 9.89558 27.0796V29.0796C10.6402 29.0796 11.3065 28.8084 11.8344 28.2805L10.4202 26.8663ZM10.6335 26.3414C10.6335 26.5642 10.5672 26.7193 10.4202 26.8663L11.8344 28.2805C12.3624 27.7526 12.6335 27.0862 12.6335 26.3414H10.6335ZM10.6335 22.5108V26.3414H12.6335V22.5108H10.6335ZM13.9621 21.5108H11.6335V23.5108H13.9621V21.5108ZM14.9621 26.3414V22.5108H12.9621V26.3414H14.9621ZM15.1753 26.8663C15.0284 26.7194 14.9621 26.5642 14.9621 26.3414H12.9621C12.9621 27.0861 13.2331 27.7525 13.7611 28.2805L15.1753 26.8663ZM15.6999 27.0796C15.4773 27.0796 15.3225 27.0135 15.1753 26.8663L13.7611 28.2805C14.2889 28.8083 14.9548 29.0796 15.6999 29.0796V27.0796ZM16.2246 26.8663C16.0775 27.0134 15.9223 27.0796 15.6999 27.0796V29.0796C16.4446 29.0796 17.1109 28.8084 17.6388 28.2805L16.2246 26.8663ZM16.4378 26.3414C16.4378 26.5642 16.3715 26.7194 16.2246 26.8663L17.6388 28.2805C18.1668 27.7525 18.4378 27.0861 18.4378 26.3414H16.4378ZM16.4378 22.5108V26.3414H18.4378V22.5108H16.4378ZM18.7034 21.5108H17.4378V23.5108H18.7034V21.5108ZM19.2964 21.2633C19.1219 21.4375 18.9425 21.5108 18.7034 21.5108V23.5108C19.4767 23.5108 20.1629 23.2242 20.7093 22.6788L19.2964 21.2633ZM19.5426 20.6549C19.5426 20.9125 19.4645 21.0952 19.2957 21.264L20.71 22.6781C21.2608 22.1273 21.5426 21.433 21.5426 20.6549H19.5426ZM19.5426 9.41602V20.6549H21.5426V9.41602H19.5426ZM5.05273 10.416H20.5426V8.41602H5.05273V10.416ZM6.05273 20.6545V9.41602H4.05273V20.6545H6.05273ZM22.9379 8.0957C22.202 8.0957 21.5458 8.36564 21.0221 8.88011L22.4237 10.3068C22.575 10.1582 22.7285 10.0957 22.9379 10.0957V8.0957ZM24.8704 8.88011C24.3418 8.36076 23.6776 8.0957 22.9379 8.0957V10.0957C23.1652 10.0957 23.3225 10.1631 23.4688 10.3068L24.8704 8.88011ZM25.6758 10.8168C25.6758 10.072 25.4041 9.40535 24.8711 8.88075L23.4682 10.3062C23.6101 10.4459 23.6758 10.5951 23.6758 10.8168H25.6758ZM25.6758 18.0727V10.8168H23.6758V18.0727H25.6758ZM24.8767 20.0119C25.4046 19.484 25.6758 18.8183 25.6758 18.0727H23.6758C23.6758 18.296 23.6096 18.4506 23.4625 18.5976L24.8767 20.0119ZM22.9379 20.8109C23.6825 20.8109 24.3488 20.5397 24.8767 20.0119L23.4625 18.5976C23.3154 18.7447 23.1603 18.8109 22.9379 18.8109V20.8109ZM21.0158 20.0119C21.5388 20.5348 22.1975 20.8109 22.9379 20.8109V18.8109C22.7337 18.8109 22.5821 18.7497 22.43 18.5976L21.0158 20.0119ZM20.2168 18.0727C20.2168 18.8183 20.488 19.484 21.0158 20.0119L22.43 18.5976C22.283 18.4506 22.2168 18.296 22.2168 18.0727H20.2168ZM20.2168 10.8168V18.0727H22.2168V10.8168H20.2168ZM21.0214 8.88081C20.4886 9.40535 20.2168 10.072 20.2168 10.8168H22.2168C22.2168 10.5952 22.2825 10.4459 22.4244 10.3061L21.0214 8.88081Z" fill="#AAAAAA" mask="url(#path-1-inside-1_481_283)"/>
</svg>
