<svg width="21" height="24" viewBox="0 0 21 24" fill="none" xmlns="http://www.w3.org/2000/svg">
<g clip-path="url(#clip0_481_209)">
<path d="M20.4129 18.7033C20.0538 19.5418 19.6288 20.3136 19.1363 21.0232C18.465 21.9906 17.9154 22.6602 17.4919 23.032C16.8353 23.6424 16.1318 23.955 15.3784 23.9728C14.8376 23.9728 14.1854 23.8172 13.4262 23.5017C12.6645 23.1876 11.9645 23.032 11.3245 23.032C10.6532 23.032 9.93331 23.1876 9.16327 23.5017C8.39205 23.8172 7.77077 23.9816 7.29576 23.9979C6.57335 24.029 5.85328 23.7076 5.13454 23.032C4.6758 22.6276 4.102 21.9343 3.41462 20.9521C2.67711 19.9032 2.07078 18.687 1.59577 17.3004C1.08705 15.8026 0.832031 14.3523 0.832031 12.9482C0.832031 11.3398 1.17587 9.95259 1.86457 8.7901C2.40583 7.85636 3.12589 7.11979 4.02711 6.57906C4.92832 6.03834 5.90209 5.76279 6.95075 5.74516C7.52454 5.74516 8.277 5.92456 9.21207 6.27714C10.1445 6.63091 10.7432 6.81031 11.0057 6.81031C11.202 6.81031 11.8671 6.60054 12.9946 6.18233C14.0608 5.79449 14.9607 5.6339 15.6979 5.69716C17.6956 5.86012 19.1964 6.6561 20.1945 8.09013C18.4079 9.18431 17.5241 10.7169 17.5417 12.6829C17.5578 14.2142 18.1074 15.4886 19.1876 16.5004C19.6771 16.97 20.2238 17.333 20.832 17.5907C20.7001 17.9774 20.5609 18.3477 20.4129 18.7033ZM15.8313 0.480137C15.8313 1.68041 15.3975 2.8011 14.5328 3.8384C13.4892 5.07155 12.227 5.78412 10.8583 5.67168C10.8408 5.52769 10.8307 5.37613 10.8307 5.21688C10.8307 4.06462 11.327 2.83147 12.2083 1.82321C12.6482 1.3127 13.2078 0.888228 13.8864 0.549615C14.5635 0.216055 15.204 0.031589 15.8064 0C15.824 0.160458 15.8313 0.320926 15.8313 0.480121V0.480137Z" fill="#AAAAAA"/>
</g>
<defs>
<clipPath id="clip0_481_209">
<rect width="20" height="24" fill="white" transform="translate(0.832031)"/>
</clipPath>
</defs>
</svg>
