<svg width="37" height="18" viewBox="0 0 37 18" fill="none" xmlns="http://www.w3.org/2000/svg">
<g clip-path="url(#clip0_481_217)">
<path d="M1.28651 17.6943H4.22901V5.06199H1.28651V17.6943ZM2.75186 3.40538C3.67361 3.40538 4.39446 2.69032 4.39446 1.79654C4.39446 0.890808 3.67361 0.175781 2.75186 0.175781C1.84194 0.175781 1.12109 0.890839 1.12109 1.79654C1.12109 2.69035 1.84194 3.40538 2.75186 3.40538ZM14.0259 0.211446C9.05096 0.211446 5.93106 3.63175 5.93106 9.10192C5.93106 14.5721 9.05065 17.9805 14.0259 17.9805C18.9891 17.9805 22.109 14.5721 22.109 9.10192C22.109 3.63175 18.9894 0.211446 14.0259 0.211446ZM14.0259 2.83328C17.0629 2.83328 19.0009 5.26444 19.0009 9.10186C19.0009 12.9273 17.0629 15.3585 14.0259 15.3585C10.9771 15.3585 9.05096 12.9274 9.05096 9.10186C9.05096 5.2645 10.9772 2.83328 14.0259 2.83328ZM23.3502 12.8559C23.4802 16.0261 26.0564 17.9804 29.9797 17.9804C34.1039 17.9804 36.7038 15.9306 36.7038 12.6653C36.7038 10.103 35.2384 8.66101 31.776 7.86261L29.8144 7.40974C27.7227 6.90922 26.8601 6.24184 26.8601 5.09777C26.8601 3.66769 28.16 2.7143 30.0861 2.7143C32.036 2.7143 33.3712 3.67962 33.5131 5.28845H36.4202C36.3492 2.26143 33.8676 0.211537 30.1099 0.211537C26.3991 0.211537 23.7639 2.27324 23.7639 5.32415C23.7639 7.77913 25.2529 9.30459 28.3961 10.0316L30.6059 10.556C32.7567 11.0684 33.6311 11.7835 33.6311 13.0229C33.6311 14.453 32.2012 15.4779 30.1452 15.4779C28.0653 15.4779 26.4937 14.4411 26.3047 12.856H23.3504L23.3502 12.8559Z" fill="#AAAAAA"/>
</g>
<defs>
<clipPath id="clip0_481_217">
<rect width="36" height="18" fill="white" transform="translate(0.917969)"/>
</clipPath>
</defs>
</svg>
